<?xml version="1.0" encoding="UTF-8"?>
<!-- AKRA logo — purple symbol + АКРА text + subtitle, transparent background
     Symbol color: #9165F0  |  Text color: #000000
     Usage: <img src="akra_logo.svg" alt="АКРА"> -->
<svg xmlns="http://www.w3.org/2000/svg" viewBox="1145 300 135 185" overflow="hidden" width="135" height="185">
<g transform="translate(0,0)">
<path fill-rule="nonzero" fill="rgb(56.898499%, 39.199829%, 94.099426%)" fill-opacity="1" d="M 1183.625 336.613281 L 1170.210938 307.824219 L 1156.789062 336.613281 Z M 1183.625 336.613281 "/>
<path fill-rule="nonzero" fill="rgb(56.898499%, 39.199829%, 94.099426%)" fill-opacity="1" d="M 1268.042969 336.613281 L 1254.628906 307.824219 L 1241.207031 336.613281 Z M 1268.042969 336.613281 "/>
<path fill-rule="nonzero" fill="rgb(56.898499%, 39.199829%, 94.099426%)" fill-opacity="1" d="M 1212.414062 323.195312 L 1183.625 336.609375 L 1212.414062 350.03125 Z M 1212.414062 323.195312 "/>
<path fill-rule="nonzero" fill="rgb(56.898499%, 39.199829%, 94.099426%)" fill-opacity="1" d="M 1212.414062 350.03125 L 1241.207031 336.617188 L 1212.414062 323.195312 Z M 1212.414062 350.03125 "/>
<path fill-rule="nonzero" fill="rgb(100%, 100%, 100%)" fill-opacity="1" d="M 1165.207031 414.914062 L 1163.488281 410.257812 L 1161.757812 414.914062 Z M 1162.757812 408.558594 L 1164.316406 408.558594 L 1168.460938 419.15625 L 1166.761719 419.15625 L 1165.664062 416.199219 L 1161.3125 416.199219 L 1160.214844 419.15625 L 1158.609375 419.15625 Z M 1162.757812 408.558594 "/>
<path fill-rule="nonzero" fill="rgb(100%, 100%, 100%)" fill-opacity="1" d="M 1178.359375 417.296875 C 1178.246094 417.488281 1178.0625 417.703125 1177.820312 417.949219 C 1177.578125 418.191406 1177.28125 418.421875 1176.929688 418.636719 C 1176.582031 418.855469 1176.179688 419.039062 1175.722656 419.1875 C 1175.265625 419.335938 1174.765625 419.410156 1174.214844 419.410156 C 1173.429688 419.410156 1172.714844 419.269531 1172.070312 418.996094 C 1171.421875 418.722656 1170.867188 418.335938 1170.402344 417.84375 C 1169.933594 417.351562 1169.570312 416.769531 1169.3125 416.097656 C 1169.050781 415.425781 1168.921875 414.691406 1168.921875 413.894531 C 1168.921875 413.125 1169.050781 412.398438 1169.3125 411.71875 C 1169.570312 411.042969 1169.933594 410.449219 1170.402344 409.941406 C 1170.867188 409.429688 1171.425781 409.03125 1172.078125 408.742188 C 1172.726562 408.449219 1173.453125 408.304688 1174.246094 408.304688 C 1174.804688 408.304688 1175.308594 408.371094 1175.753906 408.511719 C 1176.199219 408.648438 1176.589844 408.820312 1176.921875 409.027344 C 1177.257812 409.234375 1177.542969 409.457031 1177.78125 409.703125 C 1178.019531 409.945312 1178.210938 410.179688 1178.359375 410.402344 L 1177.28125 411.324219 C 1177.152344 411.140625 1177.003906 410.953125 1176.828125 410.757812 C 1176.652344 410.5625 1176.445312 410.382812 1176.199219 410.226562 C 1175.957031 410.066406 1175.675781 409.933594 1175.355469 409.828125 C 1175.039062 409.722656 1174.675781 409.671875 1174.261719 409.671875 C 1173.679688 409.671875 1173.15625 409.78125 1172.695312 410.003906 C 1172.234375 410.226562 1171.84375 410.527344 1171.519531 410.910156 C 1171.199219 411.289062 1170.953125 411.734375 1170.78125 412.242188 C 1170.613281 412.753906 1170.527344 413.292969 1170.527344 413.863281 C 1170.527344 414.4375 1170.617188 414.972656 1170.789062 415.476562 C 1170.964844 415.980469 1171.210938 416.417969 1171.527344 416.789062 C 1171.847656 417.160156 1172.230469 417.449219 1172.6875 417.660156 C 1173.144531 417.875 1173.652344 417.980469 1174.214844 417.980469 C 1174.691406 417.980469 1175.101562 417.917969 1175.445312 417.796875 C 1175.789062 417.675781 1176.082031 417.53125 1176.320312 417.359375 C 1176.558594 417.191406 1176.753906 417.019531 1176.90625 416.84375 C 1177.058594 416.667969 1177.191406 416.523438 1177.296875 416.40625 Z M 1178.359375 417.296875 "/>
<path fill-rule="nonzero" fill="rgb(100%, 100%, 100%)" fill-opacity="1" d="M 1188.957031 417.296875 C 1188.839844 417.488281 1188.660156 417.703125 1188.417969 417.949219 C 1188.171875 418.191406 1187.878906 418.421875 1187.527344 418.636719 C 1187.179688 418.855469 1186.773438 419.039062 1186.320312 419.1875 C 1185.863281 419.335938 1185.359375 419.410156 1184.8125 419.410156 C 1184.027344 419.410156 1183.3125 419.269531 1182.664062 418.996094 C 1182.019531 418.722656 1181.464844 418.335938 1180.996094 417.84375 C 1180.53125 417.351562 1180.167969 416.769531 1179.910156 416.097656 C 1179.648438 415.425781 1179.519531 414.691406 1179.519531 413.894531 C 1179.519531 413.125 1179.648438 412.398438 1179.910156 411.71875 C 1180.167969 411.042969 1180.53125 410.449219 1180.996094 409.941406 C 1181.464844 409.429688 1182.019531 409.03125 1182.671875 408.742188 C 1183.324219 408.449219 1184.046875 408.304688 1184.84375 408.304688 C 1185.402344 408.304688 1185.90625 408.371094 1186.351562 408.511719 C 1186.796875 408.648438 1187.1875 408.820312 1187.519531 409.027344 C 1187.851562 409.234375 1188.140625 409.457031 1188.378906 409.703125 C 1188.613281 409.945312 1188.808594 410.179688 1188.957031 410.402344 L 1187.878906 411.324219 C 1187.75 411.140625 1187.597656 410.953125 1187.425781 410.757812 C 1187.25 410.5625 1187.039062 410.382812 1186.796875 410.226562 C 1186.554688 410.066406 1186.273438 409.933594 1185.953125 409.828125 C 1185.636719 409.722656 1185.269531 409.671875 1184.859375 409.671875 C 1184.273438 409.671875 1183.753906 409.78125 1183.292969 410.003906 C 1182.832031 410.226562 1182.441406 410.527344 1182.117188 410.910156 C 1181.792969 411.289062 1181.546875 411.734375 1181.378906 412.242188 C 1181.210938 412.753906 1181.125 413.292969 1181.125 413.863281 C 1181.125 414.4375 1181.210938 414.972656 1181.386719 415.476562 C 1181.5625 415.980469 1181.808594 416.417969 1182.125 416.789062 C 1182.441406 417.160156 1182.828125 417.449219 1183.285156 417.660156 C 1183.738281 417.875 1184.25 417.980469 1184.8125 417.980469 C 1185.285156 417.980469 1185.695312 417.917969 1186.042969 417.796875 C 1186.386719 417.675781 1186.675781 417.53125 1186.914062 417.359375 C 1187.152344 417.191406 1187.351562 417.019531 1187.503906 416.84375 C 1187.65625 416.667969 1187.785156 416.523438 1187.894531 416.40625 Z M 1188.957031 417.296875 "/>
<path fill-rule="nonzero" fill="rgb(100%, 100%, 100%)" fill-opacity="1" d="M 1195.535156 417.996094 C 1196.117188 417.996094 1196.644531 417.882812 1197.117188 417.660156 C 1197.585938 417.441406 1197.988281 417.136719 1198.324219 416.757812 C 1198.65625 416.375 1198.914062 415.933594 1199.09375 415.429688 C 1199.273438 414.925781 1199.363281 414.394531 1199.363281 413.832031 C 1199.363281 413.261719 1199.273438 412.722656 1199.09375 412.21875 C 1198.914062 411.714844 1198.65625 411.273438 1198.324219 410.894531 C 1197.988281 410.511719 1197.585938 410.210938 1197.117188 409.996094 C 1196.644531 409.777344 1196.117188 409.667969 1195.535156 409.667969 C 1194.953125 409.667969 1194.429688 409.777344 1193.960938 409.996094 C 1193.496094 410.210938 1193.097656 410.511719 1192.761719 410.894531 C 1192.429688 411.273438 1192.171875 411.714844 1191.992188 412.21875 C 1191.8125 412.722656 1191.722656 413.261719 1191.722656 413.832031 C 1191.722656 414.394531 1191.8125 414.925781 1191.992188 415.429688 C 1192.171875 415.933594 1192.429688 416.375 1192.761719 416.757812 C 1193.097656 417.136719 1193.496094 417.441406 1193.960938 417.660156 C 1194.429688 417.882812 1194.953125 417.996094 1195.535156 417.996094 M 1195.535156 419.425781 C 1194.773438 419.425781 1194.0625 419.28125 1193.40625 418.988281 C 1192.75 418.699219 1192.175781 418.300781 1191.691406 417.796875 C 1191.203125 417.292969 1190.820312 416.703125 1190.546875 416.027344 C 1190.269531 415.347656 1190.132812 414.621094 1190.132812 413.847656 C 1190.132812 413.074219 1190.269531 412.351562 1190.546875 411.679688 C 1190.820312 411.007812 1191.199219 410.417969 1191.683594 409.914062 C 1192.164062 409.414062 1192.734375 409.015625 1193.398438 408.722656 C 1194.058594 408.433594 1194.773438 408.289062 1195.535156 408.289062 C 1196.296875 408.289062 1197.011719 408.433594 1197.671875 408.722656 C 1198.335938 409.015625 1198.90625 409.414062 1199.394531 409.914062 C 1199.882812 410.417969 1200.265625 411.007812 1200.539062 411.679688 C 1200.816406 412.351562 1200.953125 413.074219 1200.953125 413.847656 C 1200.953125 414.621094 1200.816406 415.347656 1200.539062 416.027344 C 1200.265625 416.703125 1199.882812 417.292969 1199.394531 417.796875 C 1198.90625 418.300781 1198.335938 418.699219 1197.671875 418.988281 C 1197.011719 419.28125 1196.296875 419.425781 1195.535156 419.425781 "/>
<path fill-rule="nonzero" fill="rgb(100%, 100%, 100%)" fill-opacity="1" d="M 1211.167969 419.15625 L 1202.9375 419.15625 L 1202.9375 408.558594 L 1204.464844 408.558594 L 1204.464844 417.789062 L 1210.136719 417.789062 L 1210.136719 408.558594 L 1211.660156 408.558594 L 1211.660156 417.789062 L 1212.550781 417.789062 L 1212.550781 421.601562 L 1211.167969 421.601562 Z M 1211.167969 419.15625 "/>
<path fill-rule="nonzero" fill="rgb(100%, 100%, 100%)" fill-opacity="1" d="M 1221.65625 419.15625 L 1221.65625 410.703125 L 1215.871094 419.15625 L 1214.332031 419.15625 L 1214.332031 408.558594 L 1215.824219 408.558594 L 1215.824219 416.976562 L 1221.59375 408.558594 L 1223.148438 408.558594 L 1223.148438 419.15625 Z M 1221.65625 419.15625 "/>
<path fill-rule="nonzero" fill="rgb(100%, 100%, 100%)" fill-opacity="1" d="M 1231.109375 414.914062 L 1229.390625 410.257812 L 1227.660156 414.914062 Z M 1228.664062 408.558594 L 1230.21875 408.558594 L 1234.367188 419.15625 L 1232.667969 419.15625 L 1231.570312 416.199219 L 1227.214844 416.199219 L 1226.121094 419.15625 L 1224.515625 419.15625 Z M 1228.664062 408.558594 "/>
<path fill-rule="nonzero" fill="rgb(100%, 100%, 100%)" fill-opacity="1" d="M 1243.976562 419.15625 L 1235.75 419.15625 L 1235.75 408.558594 L 1237.273438 408.558594 L 1237.273438 417.789062 L 1242.945312 417.789062 L 1242.945312 408.558594 L 1244.472656 408.558594 L 1244.472656 417.789062 L 1245.363281 417.789062 L 1245.363281 421.601562 L 1243.976562 421.601562 Z M 1243.976562 419.15625 "/>
<path fill-rule="nonzero" fill="rgb(100%, 100%, 100%)" fill-opacity="1" d="M 1254.464844 419.15625 L 1254.464844 410.703125 L 1248.683594 419.15625 L 1247.140625 419.15625 L 1247.140625 408.558594 L 1248.632812 408.558594 L 1248.632812 416.976562 L 1254.402344 408.558594 L 1255.957031 408.558594 L 1255.957031 419.15625 Z M 1254.464844 419.15625 "/>
<path fill-rule="nonzero" fill="rgb(100%, 100%, 100%)" fill-opacity="1" d="M 1263.695312 409.875 L 1261.675781 409.875 C 1261.042969 409.875 1260.546875 410.039062 1260.191406 410.359375 C 1259.835938 410.683594 1259.660156 411.132812 1259.660156 411.703125 C 1259.660156 412.265625 1259.828125 412.710938 1260.160156 413.039062 C 1260.496094 413.367188 1260.988281 413.53125 1261.644531 413.53125 L 1263.695312 413.53125 Z M 1257.5625 419.15625 L 1259.40625 415.789062 C 1259.605469 415.417969 1259.789062 415.140625 1259.945312 414.960938 C 1260.105469 414.78125 1260.316406 414.636719 1260.582031 414.53125 C 1260.199219 414.46875 1259.855469 414.351562 1259.546875 414.183594 C 1259.242188 414.011719 1258.976562 413.800781 1258.761719 413.546875 C 1258.546875 413.292969 1258.382812 413 1258.269531 412.671875 C 1258.160156 412.34375 1258.101562 411.996094 1258.101562 411.625 C 1258.101562 411.210938 1258.175781 410.820312 1258.316406 410.449219 C 1258.460938 410.078125 1258.683594 409.75 1258.984375 409.472656 C 1259.285156 409.191406 1259.667969 408.96875 1260.128906 408.804688 C 1260.589844 408.640625 1261.136719 408.558594 1261.773438 408.558594 L 1265.171875 408.558594 L 1265.171875 419.15625 L 1263.695312 419.15625 L 1263.695312 414.816406 L 1262.472656 414.816406 C 1262.257812 414.816406 1262.082031 414.839844 1261.929688 414.890625 C 1261.785156 414.9375 1261.644531 415.015625 1261.519531 415.128906 C 1261.390625 415.238281 1261.269531 415.378906 1261.152344 415.546875 C 1261.035156 415.71875 1260.914062 415.929688 1260.789062 416.183594 L 1259.230469 419.15625 Z M 1257.5625 419.15625 "/>
<path fill-rule="nonzero" fill="rgb(100%, 100%, 100%)" fill-opacity="1" d="M 1158.691406 438.222656 L 1158.691406 427.625 L 1160.214844 427.625 L 1160.214844 432.054688 L 1161.3125 432.054688 C 1161.722656 432.054688 1162.054688 431.96875 1162.304688 431.792969 C 1162.554688 431.621094 1162.777344 431.363281 1162.980469 431.023438 L 1165.03125 427.625 L 1166.699219 427.625 L 1164.617188 431.070312 C 1164.363281 431.484375 1164.109375 431.828125 1163.851562 432.097656 C 1163.597656 432.367188 1163.289062 432.570312 1162.917969 432.707031 C 1163.128906 432.769531 1163.316406 432.851562 1163.480469 432.953125 C 1163.644531 433.054688 1163.796875 433.175781 1163.941406 433.3125 C 1164.085938 433.449219 1164.222656 433.609375 1164.355469 433.796875 C 1164.488281 433.980469 1164.625 434.195312 1164.777344 434.441406 L 1167.09375 438.222656 L 1165.316406 438.222656 L 1163.125 434.628906 C 1162.859375 434.183594 1162.597656 433.875 1162.34375 433.691406 C 1162.089844 433.511719 1161.761719 433.421875 1161.359375 433.421875 L 1160.214844 433.421875 L 1160.214844 438.222656 Z M 1158.691406 438.222656 "/>
<path fill-rule="nonzero" fill="rgb(100%, 100%, 100%)" fill-opacity="1" d="M 1175.835938 438.222656 L 1175.835938 429.769531 L 1170.050781 438.222656 L 1168.507812 438.222656 L 1168.507812 427.625 L 1170.003906 427.625 L 1170.003906 436.042969 L 1175.769531 427.625 L 1177.328125 427.625 L 1177.328125 438.222656 Z M 1175.835938 438.222656 "/>
<path fill-rule="nonzero" fill="rgb(100%, 100%, 100%)" fill-opacity="1" d="M 1181.265625 436.917969 L 1183.300781 436.917969 C 1184 436.917969 1184.546875 436.757812 1184.945312 436.441406 C 1185.34375 436.125 1185.539062 435.640625 1185.539062 434.996094 C 1185.539062 434.359375 1185.34375 433.878906 1184.945312 433.550781 C 1184.546875 433.222656 1184 433.058594 1183.300781 433.058594 L 1181.265625 433.058594 Z M 1186.160156 427.625 L 1186.160156 428.941406 L 1181.265625 428.941406 L 1181.265625 431.753906 L 1183.332031 431.753906 C 1184.539062 431.753906 1185.472656 432.039062 1186.128906 432.605469 C 1186.785156 433.171875 1187.113281 433.953125 1187.113281 434.949219 C 1187.113281 435.363281 1187.042969 435.765625 1186.90625 436.164062 C 1186.769531 436.5625 1186.550781 436.910156 1186.246094 437.210938 C 1185.945312 437.515625 1185.546875 437.757812 1185.054688 437.945312 C 1184.5625 438.128906 1183.960938 438.222656 1183.253906 438.222656 L 1179.742188 438.222656 L 1179.742188 427.625 Z M 1186.160156 427.625 "/>
<path fill-rule="nonzero" fill="rgb(100%, 100%, 100%)" fill-opacity="1" d="M 1189.003906 427.625 L 1195.679688 427.625 L 1195.679688 428.972656 L 1190.527344 428.972656 L 1190.527344 432.054688 L 1194.40625 432.054688 L 1194.40625 433.421875 L 1190.527344 433.421875 L 1190.527344 436.855469 L 1196.058594 436.855469 L 1196.058594 438.222656 L 1189.003906 438.222656 Z M 1189.003906 427.625 "/>
<path fill-rule="nonzero" fill="rgb(100%, 100%, 100%)" fill-opacity="1" d="M 1201.382812 432.753906 C 1202.039062 432.753906 1202.542969 432.589844 1202.898438 432.253906 C 1203.253906 431.921875 1203.429688 431.457031 1203.429688 430.863281 C 1203.429688 430.261719 1203.246094 429.789062 1202.882812 429.441406 C 1202.519531 429.097656 1202.015625 428.925781 1201.382812 428.925781 L 1199.476562 428.925781 L 1199.476562 432.753906 Z M 1197.964844 427.625 L 1201.316406 427.625 C 1202.039062 427.625 1202.632812 427.722656 1203.105469 427.925781 C 1203.574219 428.128906 1203.953125 428.378906 1204.234375 428.6875 C 1204.515625 428.996094 1204.710938 429.339844 1204.820312 429.71875 C 1204.933594 430.101562 1204.988281 430.472656 1204.988281 430.832031 C 1204.988281 431.363281 1204.898438 431.828125 1204.71875 432.230469 C 1204.539062 432.632812 1204.289062 432.96875 1203.972656 433.242188 C 1203.652344 433.511719 1203.273438 433.714844 1202.835938 433.851562 C 1202.394531 433.988281 1201.914062 434.058594 1201.398438 434.058594 L 1199.476562 434.058594 L 1199.476562 438.222656 L 1197.964844 438.222656 Z M 1197.964844 427.625 "/>
<path fill-rule="nonzero" fill="rgb(100%, 100%, 100%)" fill-opacity="1" d="M 1215.855469 436.363281 C 1215.738281 436.550781 1215.558594 436.769531 1215.316406 437.011719 C 1215.070312 437.257812 1214.777344 437.488281 1214.425781 437.703125 C 1214.078125 437.921875 1213.671875 438.105469 1213.21875 438.253906 C 1212.761719 438.402344 1212.257812 438.476562 1211.710938 438.476562 C 1210.925781 438.476562 1210.210938 438.335938 1209.5625 438.0625 C 1208.917969 437.789062 1208.363281 437.402344 1207.894531 436.910156 C 1207.429688 436.417969 1207.066406 435.835938 1206.808594 435.164062 C 1206.546875 434.492188 1206.417969 433.757812 1206.417969 432.960938 C 1206.417969 432.1875 1206.546875 431.464844 1206.808594 430.785156 C 1207.066406 430.109375 1207.429688 429.515625 1207.894531 429.007812 C 1208.363281 428.496094 1208.917969 428.097656 1209.570312 427.804688 C 1210.222656 427.515625 1210.945312 427.371094 1211.742188 427.371094 C 1212.300781 427.371094 1212.804688 427.4375 1213.25 427.578125 C 1213.695312 427.714844 1214.085938 427.886719 1214.417969 428.09375 C 1214.75 428.300781 1215.039062 428.523438 1215.277344 428.765625 C 1215.511719 429.011719 1215.707031 429.246094 1215.855469 429.464844 L 1214.777344 430.386719 C 1214.648438 430.207031 1214.496094 430.019531 1214.324219 429.824219 C 1214.148438 429.628906 1213.9375 429.449219 1213.695312 429.292969 C 1213.453125 429.132812 1213.171875 429 1212.851562 428.894531 C 1212.535156 428.789062 1212.167969 428.734375 1211.757812 428.734375 C 1211.171875 428.734375 1210.652344 428.847656 1210.191406 429.070312 C 1209.730469 429.292969 1209.339844 429.59375 1209.015625 429.976562 C 1208.691406 430.355469 1208.445312 430.800781 1208.277344 431.308594 C 1208.109375 431.816406 1208.023438 432.359375 1208.023438 432.929688 C 1208.023438 433.503906 1208.109375 434.039062 1208.285156 434.542969 C 1208.460938 435.046875 1208.707031 435.484375 1209.023438 435.855469 C 1209.339844 436.222656 1209.726562 436.515625 1210.183594 436.726562 C 1210.636719 436.9375 1211.148438 437.046875 1211.710938 437.046875 C 1212.183594 437.046875 1212.59375 436.984375 1212.941406 436.863281 C 1213.285156 436.742188 1213.574219 436.59375 1213.8125 436.425781 C 1214.050781 436.257812 1214.25 436.085938 1214.402344 435.910156 C 1214.554688 435.734375 1214.683594 435.589844 1214.792969 435.472656 Z M 1215.855469 436.363281 "/>
<path fill-rule="nonzero" fill="rgb(100%, 100%, 100%)" fill-opacity="1" d="M 1226.421875 427.625 L 1226.421875 438.222656 L 1224.898438 438.222656 L 1224.898438 428.992188 L 1219.144531 428.992188 L 1219.144531 438.222656 L 1217.617188 438.222656 L 1217.617188 427.625 Z M 1226.421875 427.625 "/>
<path fill-rule="nonzero" fill="rgb(100%, 100%, 100%)" fill-opacity="1" d="M 1233.824219 437.0625 C 1234.40625 437.0625 1234.933594 436.949219 1235.40625 436.726562 C 1235.878906 436.503906 1236.28125 436.203125 1236.613281 435.824219 C 1236.945312 435.441406 1237.203125 435 1237.382812 434.496094 C 1237.5625 433.992188 1237.652344 433.460938 1237.652344 432.898438 C 1237.652344 432.328125 1237.5625 431.789062 1237.382812 431.285156 C 1237.203125 430.78125 1236.945312 430.339844 1236.613281 429.960938 C 1236.28125 429.578125 1235.878906 429.277344 1235.40625 429.0625 C 1234.933594 428.84375 1234.40625 428.734375 1233.824219 428.734375 C 1233.242188 428.734375 1232.71875 428.84375 1232.253906 429.0625 C 1231.785156 429.277344 1231.386719 429.578125 1231.054688 429.960938 C 1230.71875 430.339844 1230.460938 430.78125 1230.28125 431.285156 C 1230.101562 431.789062 1230.011719 432.328125 1230.011719 432.898438 C 1230.011719 433.460938 1230.101562 433.992188 1230.28125 434.496094 C 1230.460938 435 1230.71875 435.441406 1231.054688 435.824219 C 1231.386719 436.203125 1231.785156 436.503906 1232.253906 436.726562 C 1232.71875 436.949219 1233.242188 437.0625 1233.824219 437.0625 M 1233.824219 438.492188 C 1233.0625 438.492188 1232.351562 438.34375 1231.695312 438.054688 C 1231.039062 437.761719 1230.46875 437.367188 1229.980469 436.863281 C 1229.492188 436.359375 1229.109375 435.769531 1228.835938 435.089844 C 1228.558594 434.414062 1228.421875 433.6875 1228.421875 432.914062 C 1228.421875 432.140625 1228.558594 431.417969 1228.835938 430.746094 C 1229.109375 430.074219 1229.488281 429.484375 1229.972656 428.980469 C 1230.453125 428.476562 1231.027344 428.082031 1231.6875 427.789062 C 1232.347656 427.5 1233.0625 427.351562 1233.824219 427.351562 C 1234.589844 427.351562 1235.300781 427.5 1235.960938 427.789062 C 1236.625 428.082031 1237.199219 428.476562 1237.683594 428.980469 C 1238.171875 429.484375 1238.554688 430.074219 1238.832031 430.746094 C 1239.105469 431.417969 1239.242188 432.140625 1239.242188 432.914062 C 1239.242188 433.6875 1239.105469 434.414062 1238.832031 435.089844 C 1238.554688 435.769531 1238.171875 436.359375 1237.683594 436.863281 C 1237.199219 437.367188 1236.625 437.761719 1235.960938 438.054688 C 1235.300781 438.34375 1234.589844 438.492188 1233.824219 438.492188 "/>
<path fill-rule="nonzero" fill="rgb(100%, 100%, 100%)" fill-opacity="1" d="M 1244.644531 432.753906 C 1245.300781 432.753906 1245.808594 432.589844 1246.164062 432.253906 C 1246.515625 431.921875 1246.695312 431.457031 1246.695312 430.863281 C 1246.695312 430.261719 1246.511719 429.789062 1246.148438 429.441406 C 1245.78125 429.097656 1245.28125 428.925781 1244.644531 428.925781 L 1242.738281 428.925781 L 1242.738281 432.753906 Z M 1241.226562 427.625 L 1244.582031 427.625 C 1245.300781 427.625 1245.898438 427.722656 1246.371094 427.925781 C 1246.839844 428.128906 1247.214844 428.378906 1247.496094 428.6875 C 1247.777344 428.996094 1247.972656 429.339844 1248.085938 429.71875 C 1248.195312 430.101562 1248.25 430.472656 1248.25 430.832031 C 1248.25 431.363281 1248.160156 431.828125 1247.980469 432.230469 C 1247.800781 432.632812 1247.550781 432.96875 1247.234375 433.242188 C 1246.917969 433.511719 1246.539062 433.714844 1246.097656 433.851562 C 1245.660156 433.988281 1245.179688 434.058594 1244.660156 434.058594 L 1242.738281 434.058594 L 1242.738281 438.222656 L 1241.226562 438.222656 Z M 1241.226562 427.625 "/>
<path fill-rule="nonzero" fill="rgb(100%, 100%, 100%)" fill-opacity="1" d="M 1253.160156 428.957031 L 1249.363281 428.957031 L 1249.363281 427.625 L 1258.46875 427.625 L 1258.46875 428.957031 L 1254.6875 428.957031 L 1254.6875 438.222656 L 1253.160156 438.222656 Z M 1253.160156 428.957031 "/>
<path fill-rule="nonzero" fill="rgb(100%, 100%, 100%)" fill-opacity="1" d="M 1263.917969 433.980469 L 1262.199219 429.324219 L 1260.46875 433.980469 Z M 1261.472656 427.625 L 1263.027344 427.625 L 1267.175781 438.222656 L 1265.476562 438.222656 L 1264.378906 435.265625 L 1260.023438 435.265625 L 1258.929688 438.222656 L 1257.324219 438.222656 Z M 1261.472656 427.625 "/>
<path fill-rule="nonzero" fill="rgb(100%, 100%, 100%)" fill-opacity="1" d="M 1166.199219 451.820312 C 1166.855469 451.820312 1167.359375 451.65625 1167.714844 451.320312 C 1168.070312 450.988281 1168.246094 450.523438 1168.246094 449.929688 C 1168.246094 449.328125 1168.0625 448.855469 1167.699219 448.507812 C 1167.335938 448.164062 1166.832031 447.992188 1166.199219 447.992188 L 1164.292969 447.992188 L 1164.292969 451.820312 Z M 1162.78125 446.691406 L 1166.132812 446.691406 C 1166.855469 446.691406 1167.449219 446.789062 1167.921875 446.992188 C 1168.390625 447.195312 1168.769531 447.445312 1169.050781 447.753906 C 1169.332031 448.0625 1169.527344 448.40625 1169.636719 448.785156 C 1169.75 449.167969 1169.804688 449.539062 1169.804688 449.898438 C 1169.804688 450.429688 1169.714844 450.894531 1169.535156 451.296875 C 1169.355469 451.699219 1169.105469 452.035156 1168.789062 452.308594 C 1168.46875 452.578125 1168.089844 452.78125 1167.652344 452.917969 C 1167.210938 453.054688 1166.730469 453.125 1166.214844 453.125 L 1164.292969 453.125 L 1164.292969 457.289062 L 1162.78125 457.289062 Z M 1162.78125 446.691406 "/>
<path fill-rule="nonzero" fill="rgb(100%, 100%, 100%)" fill-opacity="1" d="M 1171.679688 446.691406 L 1178.351562 446.691406 L 1178.351562 448.039062 L 1173.203125 448.039062 L 1173.203125 451.121094 L 1177.082031 451.121094 L 1177.082031 452.488281 L 1173.203125 452.488281 L 1173.203125 455.921875 L 1178.734375 455.921875 L 1178.734375 457.289062 L 1171.679688 457.289062 Z M 1171.679688 446.691406 "/>
<path fill-rule="nonzero" fill="rgb(100%, 100%, 100%)" fill-opacity="1" d="M 1189.078125 455.429688 C 1188.960938 455.617188 1188.78125 455.835938 1188.535156 456.078125 C 1188.292969 456.324219 1187.996094 456.554688 1187.648438 456.769531 C 1187.296875 456.988281 1186.894531 457.171875 1186.4375 457.320312 C 1185.984375 457.46875 1185.480469 457.542969 1184.929688 457.542969 C 1184.144531 457.542969 1183.429688 457.402344 1182.785156 457.128906 C 1182.140625 456.855469 1181.582031 456.46875 1181.117188 455.976562 C 1180.652344 455.484375 1180.289062 454.902344 1180.027344 454.230469 C 1179.769531 453.558594 1179.640625 452.824219 1179.640625 452.027344 C 1179.640625 451.253906 1179.769531 450.53125 1180.027344 449.851562 C 1180.289062 449.175781 1180.652344 448.582031 1181.117188 448.074219 C 1181.582031 447.5625 1182.140625 447.164062 1182.792969 446.871094 C 1183.445312 446.582031 1184.167969 446.4375 1184.960938 446.4375 C 1185.523438 446.4375 1186.027344 446.503906 1186.472656 446.644531 C 1186.917969 446.78125 1187.304688 446.953125 1187.640625 447.160156 C 1187.972656 447.367188 1188.257812 447.589844 1188.496094 447.832031 C 1188.734375 448.078125 1188.929688 448.3125 1189.078125 448.53125 L 1187.996094 449.453125 C 1187.871094 449.273438 1187.71875 449.085938 1187.542969 448.890625 C 1187.367188 448.695312 1187.160156 448.515625 1186.917969 448.359375 C 1186.671875 448.199219 1186.390625 448.066406 1186.074219 447.960938 C 1185.757812 447.855469 1185.390625 447.800781 1184.976562 447.800781 C 1184.394531 447.800781 1183.875 447.914062 1183.414062 448.136719 C 1182.953125 448.359375 1182.558594 448.660156 1182.238281 449.042969 C 1181.914062 449.421875 1181.667969 449.867188 1181.5 450.375 C 1181.328125 450.882812 1181.242188 451.425781 1181.242188 451.996094 C 1181.242188 452.570312 1181.332031 453.105469 1181.507812 453.609375 C 1181.679688 454.113281 1181.929688 454.550781 1182.246094 454.921875 C 1182.5625 455.289062 1182.949219 455.582031 1183.40625 455.792969 C 1183.859375 456.003906 1184.367188 456.113281 1184.929688 456.113281 C 1185.40625 456.113281 1185.816406 456.050781 1186.160156 455.929688 C 1186.507812 455.808594 1186.796875 455.660156 1187.035156 455.492188 C 1187.273438 455.324219 1187.46875 455.152344 1187.625 454.976562 C 1187.777344 454.800781 1187.90625 454.65625 1188.011719 454.539062 Z M 1189.078125 455.429688 "/>
<path fill-rule="nonzero" fill="rgb(100%, 100%, 100%)" fill-opacity="1" d="M 1199.644531 446.691406 L 1199.644531 457.289062 L 1198.117188 457.289062 L 1198.117188 448.058594 L 1192.367188 448.058594 L 1192.367188 457.289062 L 1190.839844 457.289062 L 1190.839844 446.691406 Z M 1199.644531 446.691406 "/>
<path fill-rule="nonzero" fill="rgb(100%, 100%, 100%)" fill-opacity="1" d="M 1210.414062 446.691406 L 1206.332031 455.078125 C 1206.171875 455.417969 1206 455.734375 1205.816406 456.03125 C 1205.628906 456.328125 1205.425781 456.589844 1205.195312 456.820312 C 1204.96875 457.046875 1204.710938 457.226562 1204.425781 457.359375 C 1204.140625 457.492188 1203.8125 457.558594 1203.441406 457.558594 C 1203.058594 457.558594 1202.707031 457.492188 1202.382812 457.367188 C 1202.0625 457.238281 1201.777344 457.085938 1201.53125 456.90625 L 1202.199219 455.761719 C 1202.371094 455.878906 1202.554688 455.980469 1202.75 456.070312 C 1202.945312 456.160156 1203.171875 456.207031 1203.425781 456.207031 C 1203.613281 456.207031 1203.785156 456.175781 1203.933594 456.113281 C 1204.082031 456.046875 1204.222656 455.945312 1204.351562 455.800781 C 1204.484375 455.660156 1204.613281 455.480469 1204.734375 455.261719 C 1204.855469 455.042969 1204.992188 454.78125 1205.140625 454.476562 L 1201.074219 446.691406 L 1202.742188 446.691406 L 1205.902344 452.917969 L 1208.84375 446.691406 Z M 1210.414062 446.691406 "/>
<path fill-rule="nonzero" fill="rgb(100%, 100%, 100%)" fill-opacity="1" d="M 1213.351562 455.984375 L 1215.386719 455.984375 C 1216.085938 455.984375 1216.632812 455.824219 1217.03125 455.507812 C 1217.429688 455.191406 1217.628906 454.707031 1217.628906 454.0625 C 1217.628906 453.425781 1217.429688 452.945312 1217.03125 452.617188 C 1216.632812 452.289062 1216.085938 452.125 1215.386719 452.125 L 1213.351562 452.125 Z M 1218.246094 446.691406 L 1218.246094 448.007812 L 1213.351562 448.007812 L 1213.351562 450.820312 L 1215.417969 450.820312 C 1216.625 450.820312 1217.558594 451.105469 1218.214844 451.671875 C 1218.871094 452.238281 1219.203125 453.019531 1219.203125 454.015625 C 1219.203125 454.429688 1219.132812 454.832031 1218.996094 455.230469 C 1218.855469 455.628906 1218.636719 455.976562 1218.335938 456.277344 C 1218.035156 456.582031 1217.636719 456.824219 1217.144531 457.011719 C 1216.652344 457.195312 1216.050781 457.289062 1215.339844 457.289062 L 1211.828125 457.289062 L 1211.828125 446.691406 Z M 1218.246094 446.691406 "/>
<path fill-rule="nonzero" fill="rgb(100%, 100%, 100%)" fill-opacity="1" d="M 1229.765625 446.691406 L 1229.765625 457.289062 L 1228.242188 457.289062 L 1228.242188 448.058594 L 1224.570312 448.058594 C 1224.507812 449.453125 1224.398438 450.722656 1224.246094 451.863281 C 1224.089844 453 1223.851562 453.976562 1223.523438 454.785156 C 1223.195312 455.597656 1222.765625 456.222656 1222.234375 456.667969 C 1221.707031 457.113281 1221.039062 457.335938 1220.234375 457.335938 L 1220.011719 457.335938 L 1220.011719 455.953125 C 1220.574219 455.953125 1221.042969 455.773438 1221.425781 455.414062 C 1221.804688 455.054688 1222.117188 454.492188 1222.355469 453.734375 C 1222.59375 452.980469 1222.773438 452.019531 1222.894531 450.851562 C 1223.015625 449.6875 1223.097656 448.300781 1223.140625 446.691406 Z M 1229.765625 446.691406 "/>
<path fill-rule="nonzero" fill="rgb(100%, 100%, 100%)" fill-opacity="1" d="M 1239.507812 457.289062 L 1239.507812 448.835938 L 1233.722656 457.289062 L 1232.179688 457.289062 L 1232.179688 446.691406 L 1233.675781 446.691406 L 1233.675781 455.109375 L 1239.441406 446.691406 L 1241 446.691406 L 1241 457.289062 Z M 1239.507812 457.289062 "/>
<path fill-rule="nonzero" fill="rgb(100%, 100%, 100%)" fill-opacity="1" d="M 1243.414062 457.289062 L 1243.414062 446.691406 L 1244.9375 446.691406 L 1244.9375 451.121094 L 1246.035156 451.121094 C 1246.449219 451.121094 1246.78125 451.035156 1247.027344 450.859375 C 1247.277344 450.6875 1247.503906 450.429688 1247.703125 450.089844 L 1249.753906 446.691406 L 1251.421875 446.691406 L 1249.339844 450.136719 C 1249.085938 450.550781 1248.832031 450.894531 1248.578125 451.164062 C 1248.324219 451.433594 1248.011719 451.636719 1247.640625 451.773438 C 1247.851562 451.835938 1248.042969 451.917969 1248.207031 452.019531 C 1248.367188 452.121094 1248.523438 452.242188 1248.667969 452.378906 C 1248.808594 452.515625 1248.945312 452.675781 1249.078125 452.863281 C 1249.210938 453.046875 1249.351562 453.261719 1249.5 453.507812 L 1251.820312 457.289062 L 1250.039062 457.289062 L 1247.847656 453.695312 C 1247.582031 453.25 1247.324219 452.941406 1247.070312 452.757812 C 1246.8125 452.578125 1246.484375 452.488281 1246.085938 452.488281 L 1244.9375 452.488281 L 1244.9375 457.289062 Z M 1243.414062 457.289062 "/>
<path fill-rule="nonzero" fill="rgb(100%, 100%, 100%)" fill-opacity="1" d="M 1260.558594 457.289062 L 1260.558594 448.835938 L 1254.773438 457.289062 L 1253.234375 457.289062 L 1253.234375 446.691406 L 1254.726562 446.691406 L 1254.726562 455.109375 L 1260.496094 446.691406 L 1262.050781 446.691406 L 1262.050781 457.289062 Z M 1260.558594 457.289062 "/>
<path fill-rule="nonzero" fill="rgb(100%, 100%, 100%)" fill-opacity="1" d="M 1184.914062 472.109375 L 1183.195312 467.457031 L 1181.464844 472.109375 Z M 1182.46875 465.757812 L 1184.023438 465.757812 L 1188.171875 476.351562 L 1186.472656 476.351562 L 1185.375 473.398438 L 1181.019531 473.398438 L 1179.925781 476.351562 L 1178.320312 476.351562 Z M 1182.46875 465.757812 "/>
<path fill-rule="nonzero" fill="rgb(100%, 100%, 100%)" fill-opacity="1" d="M 1191.078125 475.050781 L 1193.113281 475.050781 C 1193.8125 475.050781 1194.359375 474.890625 1194.757812 474.574219 C 1195.152344 474.257812 1195.351562 473.773438 1195.351562 473.128906 C 1195.351562 472.492188 1195.152344 472.011719 1194.757812 471.683594 C 1194.359375 471.355469 1193.8125 471.191406 1193.113281 471.191406 L 1191.078125 471.191406 Z M 1195.972656 465.753906 L 1195.972656 467.074219 L 1191.078125 467.074219 L 1191.078125 469.886719 L 1193.144531 469.886719 C 1194.351562 469.886719 1195.28125 470.171875 1195.941406 470.738281 C 1196.597656 471.304688 1196.925781 472.085938 1196.925781 473.082031 C 1196.925781 473.492188 1196.855469 473.898438 1196.71875 474.296875 C 1196.582031 474.695312 1196.359375 475.042969 1196.058594 475.34375 C 1195.757812 475.648438 1195.359375 475.890625 1194.867188 476.074219 C 1194.375 476.261719 1193.773438 476.355469 1193.0625 476.355469 L 1189.554688 476.355469 L 1189.554688 465.753906 Z M 1195.972656 465.753906 "/>
<path fill-rule="nonzero" fill="rgb(100%, 100%, 100%)" fill-opacity="1" d="M 1201.214844 470.871094 L 1197.71875 465.757812 L 1199.5625 465.757812 L 1202.136719 469.617188 L 1204.679688 465.757812 L 1206.347656 465.757812 L 1202.945312 470.824219 L 1206.710938 476.351562 L 1204.886719 476.351562 L 1202.039062 472.082031 L 1199.195312 476.351562 L 1197.511719 476.351562 Z M 1201.214844 470.871094 "/>
<path fill-rule="nonzero" fill="rgb(100%, 100%, 100%)" fill-opacity="1" d="M 1213.941406 472.109375 L 1212.222656 467.457031 L 1210.492188 472.109375 Z M 1211.496094 465.757812 L 1213.050781 465.757812 L 1217.199219 476.351562 L 1215.5 476.351562 L 1214.402344 473.398438 L 1210.046875 473.398438 L 1208.953125 476.351562 L 1207.347656 476.351562 Z M 1211.496094 465.757812 "/>
<path fill-rule="nonzero" fill="rgb(100%, 100%, 100%)" fill-opacity="1" d="M 1220.203125 470.203125 L 1221.726562 470.203125 C 1221.992188 470.203125 1222.238281 470.171875 1222.472656 470.109375 C 1222.707031 470.046875 1222.914062 469.945312 1223.09375 469.808594 C 1223.273438 469.667969 1223.417969 469.496094 1223.519531 469.285156 C 1223.628906 469.070312 1223.679688 468.816406 1223.679688 468.519531 C 1223.679688 468.214844 1223.625 467.953125 1223.515625 467.742188 C 1223.402344 467.53125 1223.253906 467.359375 1223.070312 467.226562 C 1222.882812 467.09375 1222.675781 466.996094 1222.441406 466.941406 C 1222.207031 466.882812 1221.96875 466.851562 1221.726562 466.851562 C 1221.386719 466.851562 1221.085938 466.898438 1220.820312 466.996094 C 1220.554688 467.089844 1220.324219 467.210938 1220.128906 467.359375 C 1219.933594 467.507812 1219.761719 467.667969 1219.613281 467.835938 C 1219.464844 468.007812 1219.339844 468.160156 1219.230469 468.296875 L 1218.167969 467.503906 C 1218.304688 467.292969 1218.476562 467.070312 1218.683594 466.835938 C 1218.890625 466.605469 1219.144531 466.386719 1219.445312 466.183594 C 1219.75 465.984375 1220.097656 465.820312 1220.496094 465.691406 C 1220.890625 465.566406 1221.34375 465.5 1221.851562 465.5 C 1222.394531 465.5 1222.875 465.578125 1223.292969 465.730469 C 1223.710938 465.886719 1224.058594 466.089844 1224.339844 466.34375 C 1224.621094 466.597656 1224.832031 466.898438 1224.976562 467.242188 C 1225.117188 467.585938 1225.191406 467.949219 1225.191406 468.328125 C 1225.191406 468.921875 1225.027344 469.449219 1224.707031 469.910156 C 1224.382812 470.371094 1223.933594 470.671875 1223.363281 470.808594 C 1223.648438 470.871094 1223.921875 470.976562 1224.179688 471.117188 C 1224.441406 471.261719 1224.667969 471.445312 1224.863281 471.667969 C 1225.058594 471.886719 1225.21875 472.152344 1225.332031 472.460938 C 1225.449219 472.769531 1225.507812 473.121094 1225.507812 473.527344 C 1225.507812 474.054688 1225.410156 474.511719 1225.214844 474.898438 C 1225.015625 475.285156 1224.75 475.605469 1224.410156 475.859375 C 1224.070312 476.117188 1223.679688 476.304688 1223.234375 476.425781 C 1222.792969 476.546875 1222.3125 476.609375 1221.804688 476.609375 C 1221.246094 476.609375 1220.746094 476.539062 1220.3125 476.402344 C 1219.878906 476.261719 1219.5 476.09375 1219.175781 475.894531 C 1218.851562 475.691406 1218.582031 475.472656 1218.367188 475.242188 C 1218.148438 475.007812 1217.976562 474.796875 1217.847656 474.605469 L 1218.945312 473.796875 C 1219.042969 473.921875 1219.164062 474.070312 1219.3125 474.242188 C 1219.460938 474.410156 1219.644531 474.570312 1219.867188 474.714844 C 1220.089844 474.867188 1220.355469 474.992188 1220.664062 475.097656 C 1220.96875 475.203125 1221.324219 475.257812 1221.726562 475.257812 C 1222.023438 475.257812 1222.304688 475.222656 1222.578125 475.152344 C 1222.847656 475.085938 1223.085938 474.976562 1223.292969 474.828125 C 1223.5 474.679688 1223.664062 474.480469 1223.785156 474.234375 C 1223.90625 473.984375 1223.96875 473.683594 1223.96875 473.335938 C 1223.96875 472.984375 1223.90625 472.695312 1223.785156 472.460938 C 1223.664062 472.226562 1223.503906 472.042969 1223.308594 471.90625 C 1223.109375 471.765625 1222.886719 471.667969 1222.632812 471.609375 C 1222.378906 471.550781 1222.117188 471.523438 1221.851562 471.523438 L 1220.203125 471.523438 Z M 1220.203125 470.203125 "/>
<path fill-rule="nonzero" fill="rgb(100%, 100%, 100%)" fill-opacity="1" d="M 1234.753906 476.351562 L 1234.753906 467.902344 L 1228.972656 476.351562 L 1227.429688 476.351562 L 1227.429688 465.753906 L 1228.925781 465.753906 L 1228.925781 474.175781 L 1234.691406 465.753906 L 1236.246094 465.753906 L 1236.246094 476.351562 Z M 1234.753906 476.351562 "/>
<path fill-rule="nonzero" fill="rgb(100%, 100%, 100%)" fill-opacity="1" d="M 1243.984375 467.074219 L 1241.96875 467.074219 C 1241.332031 467.074219 1240.835938 467.238281 1240.480469 467.558594 C 1240.128906 467.882812 1239.949219 468.328125 1239.949219 468.902344 C 1239.949219 469.464844 1240.117188 469.90625 1240.449219 470.238281 C 1240.785156 470.566406 1241.277344 470.730469 1241.933594 470.730469 L 1243.984375 470.730469 Z M 1237.851562 476.355469 L 1239.695312 472.984375 C 1239.894531 472.613281 1240.078125 472.339844 1240.234375 472.160156 C 1240.394531 471.980469 1240.605469 471.835938 1240.871094 471.730469 C 1240.492188 471.667969 1240.144531 471.550781 1239.839844 471.378906 C 1239.53125 471.210938 1239.269531 471 1239.050781 470.746094 C 1238.835938 470.492188 1238.671875 470.199219 1238.558594 469.871094 C 1238.449219 469.542969 1238.390625 469.195312 1238.390625 468.824219 C 1238.390625 468.410156 1238.464844 468.019531 1238.605469 467.648438 C 1238.75 467.277344 1238.972656 466.949219 1239.273438 466.667969 C 1239.578125 466.390625 1239.957031 466.167969 1240.417969 466.003906 C 1240.878906 465.839844 1241.425781 465.753906 1242.0625 465.753906 L 1245.464844 465.753906 L 1245.464844 476.355469 L 1243.984375 476.355469 L 1243.984375 472.015625 L 1242.761719 472.015625 C 1242.550781 472.015625 1242.371094 472.039062 1242.222656 472.085938 C 1242.074219 472.136719 1241.933594 472.214844 1241.808594 472.324219 C 1241.679688 472.4375 1241.558594 472.578125 1241.445312 472.746094 C 1241.328125 472.917969 1241.207031 473.128906 1241.078125 473.382812 L 1239.519531 476.355469 Z M 1237.851562 476.355469 "/>
<path fill-rule="nonzero" fill="rgb(100%, 100%, 100%)" fill-opacity="1" d="M 1222.527344 368.390625 L 1232.539062 368.390625 L 1232.539062 371.371094 L 1223.753906 375.101562 L 1222.527344 375.621094 Z M 1217.210938 384.09375 L 1222.527344 384.09375 L 1222.527344 381.609375 L 1238.226562 374.289062 L 1238.226562 363.453125 L 1217.210938 363.449219 Z M 1209.234375 366.160156 L 1209.234375 363.453125 L 1203.304688 363.453125 L 1193.914062 367.4375 L 1193.90625 367.441406 L 1193.90625 363.453125 L 1188.589844 363.449219 L 1188.589844 384.09375 L 1193.90625 384.09375 L 1193.90625 373.304688 L 1198.894531 370.976562 L 1205.007812 384.09375 L 1210.5625 384.09375 L 1210.5625 383.429688 L 1203.710938 368.734375 Z M 1251.140625 376.496094 L 1254.535156 369.21875 L 1257.925781 376.496094 Z M 1257.707031 363.449219 L 1251.359375 363.449219 L 1242.03125 383.457031 L 1242.03125 384.09375 L 1247.597656 384.09375 L 1248.835938 381.433594 L 1260.226562 381.433594 L 1261.464844 384.09375 L 1267.019531 384.09375 L 1267.019531 383.429688 Z M 1166.707031 376.496094 L 1170.101562 369.21875 L 1173.492188 376.496094 Z M 1166.925781 363.449219 L 1157.597656 383.457031 L 1157.597656 384.09375 L 1163.167969 384.09375 L 1164.40625 381.433594 L 1175.796875 381.433594 L 1177.035156 384.09375 L 1182.589844 384.09375 L 1182.589844 383.429688 L 1173.273438 363.449219 Z M 1166.925781 363.449219 "/>
<path fill-rule="nonzero" fill="rgb(100%, 100%, 100%)" fill-opacity="1" d="M 1056.710938 774.429688 L 1056.710938 769.324219 L 1053.21875 774.429688 L 1052.285156 774.429688 L 1052.285156 768.03125 L 1053.1875 768.03125 L 1053.1875 773.117188 L 1056.671875 768.03125 L 1057.609375 768.03125 L 1057.609375 774.429688 Z M 1056.710938 774.429688 "/>
<path fill-rule="nonzero" fill="rgb(100%, 100%, 100%)" fill-opacity="1" d="M 1059.988281 773.644531 L 1061.21875 773.644531 C 1061.640625 773.644531 1061.972656 773.546875 1062.210938 773.355469 C 1062.453125 773.164062 1062.570312 772.871094 1062.570312 772.480469 C 1062.570312 772.097656 1062.453125 771.804688 1062.210938 771.609375 C 1061.972656 771.410156 1061.640625 771.3125 1061.21875 771.3125 L 1059.988281 771.3125 Z M 1062.945312 768.03125 L 1062.945312 768.828125 L 1059.988281 768.828125 L 1059.988281 770.523438 L 1061.238281 770.523438 C 1061.96875 770.523438 1062.527344 770.695312 1062.925781 771.039062 C 1063.324219 771.378906 1063.519531 771.851562 1063.519531 772.453125 C 1063.519531 772.703125 1063.480469 772.949219 1063.394531 773.1875 C 1063.3125 773.425781 1063.179688 773.636719 1063 773.820312 C 1062.816406 774.003906 1062.578125 774.152344 1062.277344 774.261719 C 1061.980469 774.375 1061.617188 774.429688 1061.1875 774.429688 L 1059.070312 774.429688 L 1059.070312 768.03125 Z M 1062.945312 768.03125 "/>
<path fill-rule="nonzero" fill="rgb(100%, 100%, 100%)" fill-opacity="1" d="M 1064.664062 768.03125 L 1068.691406 768.03125 L 1068.691406 768.84375 L 1065.585938 768.84375 L 1065.585938 770.707031 L 1067.925781 770.707031 L 1067.925781 771.53125 L 1065.585938 771.53125 L 1065.585938 773.605469 L 1068.921875 773.605469 L 1068.921875 774.429688 L 1064.664062 774.429688 Z M 1064.664062 768.03125 "/>
<path fill-rule="nonzero" fill="rgb(100%, 100%, 100%)" fill-opacity="1" d="M 1072.136719 771.128906 C 1072.535156 771.128906 1072.839844 771.027344 1073.054688 770.824219 C 1073.269531 770.625 1073.375 770.347656 1073.375 769.988281 C 1073.375 769.621094 1073.265625 769.335938 1073.042969 769.128906 C 1072.824219 768.921875 1072.523438 768.816406 1072.136719 768.816406 L 1070.988281 768.816406 L 1070.988281 771.128906 Z M 1070.074219 768.027344 L 1072.101562 768.027344 C 1072.535156 768.027344 1072.894531 768.089844 1073.179688 768.210938 C 1073.464844 768.332031 1073.691406 768.488281 1073.859375 768.671875 C 1074.03125 768.859375 1074.148438 769.066406 1074.214844 769.296875 C 1074.28125 769.527344 1074.316406 769.75 1074.316406 769.96875 C 1074.316406 770.289062 1074.261719 770.570312 1074.152344 770.8125 C 1074.042969 771.054688 1073.894531 771.257812 1073.703125 771.421875 C 1073.507812 771.585938 1073.28125 771.707031 1073.015625 771.789062 C 1072.75 771.875 1072.460938 771.914062 1072.148438 771.914062 L 1070.988281 771.914062 L 1070.988281 774.429688 L 1070.074219 774.429688 Z M 1070.074219 768.027344 "/>
<path fill-rule="nonzero" fill="rgb(100%, 100%, 100%)" fill-opacity="1" d="M 1080.878906 773.304688 C 1080.808594 773.421875 1080.699219 773.554688 1080.554688 773.699219 C 1080.40625 773.847656 1080.226562 773.988281 1080.015625 774.117188 C 1079.804688 774.25 1079.5625 774.359375 1079.285156 774.449219 C 1079.011719 774.539062 1078.707031 774.582031 1078.375 774.582031 C 1077.902344 774.582031 1077.46875 774.5 1077.078125 774.332031 C 1076.6875 774.167969 1076.355469 773.9375 1076.070312 773.636719 C 1075.789062 773.339844 1075.570312 772.988281 1075.414062 772.582031 C 1075.257812 772.175781 1075.179688 771.734375 1075.179688 771.253906 C 1075.179688 770.785156 1075.257812 770.347656 1075.414062 769.941406 C 1075.570312 769.53125 1075.789062 769.171875 1076.070312 768.863281 C 1076.355469 768.558594 1076.691406 768.316406 1077.082031 768.140625 C 1077.476562 767.964844 1077.914062 767.875 1078.394531 767.875 C 1078.734375 767.875 1079.035156 767.917969 1079.304688 768 C 1079.574219 768.082031 1079.808594 768.1875 1080.011719 768.3125 C 1080.210938 768.4375 1080.386719 768.574219 1080.527344 768.71875 C 1080.671875 768.867188 1080.789062 769.007812 1080.878906 769.144531 L 1080.226562 769.699219 C 1080.148438 769.589844 1080.058594 769.476562 1079.953125 769.359375 C 1079.847656 769.242188 1079.722656 769.132812 1079.574219 769.035156 C 1079.425781 768.941406 1079.257812 768.863281 1079.066406 768.796875 C 1078.871094 768.734375 1078.652344 768.703125 1078.402344 768.703125 C 1078.050781 768.703125 1077.734375 768.769531 1077.457031 768.902344 C 1077.179688 769.035156 1076.941406 769.21875 1076.746094 769.449219 C 1076.554688 769.679688 1076.402344 769.949219 1076.300781 770.253906 C 1076.199219 770.5625 1076.148438 770.886719 1076.148438 771.234375 C 1076.148438 771.578125 1076.199219 771.90625 1076.308594 772.207031 C 1076.410156 772.511719 1076.5625 772.777344 1076.753906 773 C 1076.945312 773.222656 1077.179688 773.398438 1077.453125 773.527344 C 1077.730469 773.65625 1078.035156 773.71875 1078.375 773.71875 C 1078.660156 773.71875 1078.910156 773.683594 1079.117188 773.609375 C 1079.324219 773.535156 1079.5 773.449219 1079.644531 773.34375 C 1079.789062 773.242188 1079.90625 773.136719 1080 773.035156 C 1080.09375 772.925781 1080.171875 772.839844 1080.234375 772.769531 Z M 1080.878906 773.304688 "/>
<path fill-rule="nonzero" fill="rgb(100%, 100%, 100%)" fill-opacity="1" d="M 1087.261719 768.03125 L 1087.261719 774.429688 L 1086.339844 774.429688 L 1086.339844 768.855469 L 1082.863281 768.855469 L 1082.863281 774.429688 L 1081.945312 774.429688 L 1081.945312 768.03125 Z M 1087.261719 768.03125 "/>
<path fill-rule="nonzero" fill="rgb(100%, 100%, 100%)" fill-opacity="1" d="M 1091.730469 773.730469 C 1092.082031 773.730469 1092.402344 773.664062 1092.6875 773.527344 C 1092.96875 773.394531 1093.214844 773.210938 1093.417969 772.980469 C 1093.617188 772.75 1093.773438 772.484375 1093.878906 772.179688 C 1093.988281 771.875 1094.042969 771.554688 1094.042969 771.214844 C 1094.042969 770.871094 1093.988281 770.542969 1093.878906 770.242188 C 1093.773438 769.9375 1093.617188 769.671875 1093.417969 769.441406 C 1093.214844 769.210938 1092.96875 769.03125 1092.6875 768.898438 C 1092.402344 768.765625 1092.082031 768.703125 1091.730469 768.703125 C 1091.378906 768.703125 1091.0625 768.765625 1090.78125 768.898438 C 1090.5 769.03125 1090.257812 769.210938 1090.058594 769.441406 C 1089.855469 769.671875 1089.699219 769.9375 1089.589844 770.242188 C 1089.484375 770.542969 1089.429688 770.871094 1089.429688 771.214844 C 1089.429688 771.554688 1089.484375 771.875 1089.589844 772.179688 C 1089.699219 772.484375 1089.855469 772.75 1090.058594 772.980469 C 1090.257812 773.210938 1090.5 773.394531 1090.78125 773.527344 C 1091.0625 773.664062 1091.378906 773.730469 1091.730469 773.730469 M 1091.730469 774.59375 C 1091.269531 774.59375 1090.84375 774.503906 1090.445312 774.328125 C 1090.046875 774.152344 1089.703125 773.914062 1089.410156 773.609375 C 1089.117188 773.304688 1088.882812 772.949219 1088.71875 772.539062 C 1088.550781 772.128906 1088.46875 771.691406 1088.46875 771.222656 C 1088.46875 770.757812 1088.550781 770.320312 1088.71875 769.914062 C 1088.882812 769.507812 1089.113281 769.15625 1089.40625 768.847656 C 1089.695312 768.546875 1090.042969 768.304688 1090.441406 768.128906 C 1090.839844 767.953125 1091.269531 767.867188 1091.730469 767.867188 C 1092.191406 767.867188 1092.621094 767.953125 1093.023438 768.128906 C 1093.421875 768.304688 1093.769531 768.546875 1094.0625 768.847656 C 1094.355469 769.15625 1094.585938 769.507812 1094.753906 769.914062 C 1094.917969 770.320312 1095.003906 770.757812 1095.003906 771.222656 C 1095.003906 771.691406 1094.917969 772.128906 1094.753906 772.539062 C 1094.585938 772.949219 1094.355469 773.304688 1094.0625 773.609375 C 1093.769531 773.914062 1093.421875 774.152344 1093.023438 774.328125 C 1092.621094 774.503906 1092.191406 774.59375 1091.730469 774.59375 "/>
<path fill-rule="nonzero" fill="rgb(100%, 100%, 100%)" fill-opacity="1" d="M 1098.265625 771.128906 C 1098.660156 771.128906 1098.96875 771.027344 1099.183594 770.824219 C 1099.398438 770.625 1099.503906 770.347656 1099.503906 769.988281 C 1099.503906 769.621094 1099.394531 769.335938 1099.171875 769.128906 C 1098.953125 768.921875 1098.648438 768.816406 1098.265625 768.816406 L 1097.113281 768.816406 L 1097.113281 771.128906 Z M 1096.203125 768.027344 L 1098.226562 768.027344 C 1098.660156 768.027344 1099.023438 768.089844 1099.304688 768.210938 C 1099.589844 768.332031 1099.820312 768.488281 1099.988281 768.671875 C 1100.15625 768.859375 1100.277344 769.066406 1100.34375 769.296875 C 1100.410156 769.527344 1100.445312 769.75 1100.445312 769.96875 C 1100.445312 770.289062 1100.390625 770.570312 1100.28125 770.8125 C 1100.171875 771.054688 1100.023438 771.257812 1099.828125 771.421875 C 1099.636719 771.585938 1099.410156 771.707031 1099.144531 771.789062 C 1098.878906 771.875 1098.589844 771.914062 1098.277344 771.914062 L 1097.113281 771.914062 L 1097.113281 774.429688 L 1096.203125 774.429688 Z M 1096.203125 768.027344 "/>
<path fill-rule="nonzero" fill="rgb(100%, 100%, 100%)" fill-opacity="1" d="M 1103.40625 768.835938 L 1101.113281 768.835938 L 1101.113281 768.027344 L 1106.613281 768.027344 L 1106.613281 768.835938 L 1104.332031 768.835938 L 1104.332031 774.429688 L 1103.40625 774.429688 Z M 1103.40625 768.835938 "/>
<path fill-rule="nonzero" fill="rgb(100%, 100%, 100%)" fill-opacity="1" d="M 1109.90625 771.867188 L 1108.867188 769.054688 L 1107.824219 771.867188 Z M 1108.425781 768.027344 L 1109.367188 768.027344 L 1111.871094 774.429688 L 1110.84375 774.429688 L 1110.183594 772.644531 L 1107.554688 772.644531 L 1106.890625 774.429688 L 1105.921875 774.429688 Z M 1108.425781 768.027344 "/>
<path fill-rule="nonzero" fill="rgb(100%, 100%, 100%)" fill-opacity="1" d="M 1052.859375 785.945312 L 1052.859375 780.839844 L 1049.371094 785.945312 L 1048.4375 785.945312 L 1048.4375 779.542969 L 1049.339844 779.542969 L 1049.339844 784.628906 L 1052.824219 779.542969 L 1053.761719 779.542969 L 1053.761719 785.945312 Z M 1052.859375 785.945312 "/>
<path fill-rule="nonzero" fill="rgb(100%, 100%, 100%)" fill-opacity="1" d="M 1060.308594 783.382812 L 1059.273438 780.570312 L 1058.226562 783.382812 Z M 1058.828125 779.542969 L 1059.769531 779.542969 L 1062.273438 785.945312 L 1061.246094 785.945312 L 1060.585938 784.160156 L 1057.957031 784.160156 L 1057.292969 785.945312 L 1056.324219 785.945312 Z M 1058.828125 779.542969 "/>
<path fill-rule="nonzero" fill="rgb(100%, 100%, 100%)" fill-opacity="1" d="M 1064.03125 785.15625 L 1065.257812 785.15625 C 1065.679688 785.15625 1066.011719 785.0625 1066.253906 784.871094 C 1066.492188 784.679688 1066.609375 784.386719 1066.609375 783.996094 C 1066.609375 783.613281 1066.492188 783.320312 1066.253906 783.125 C 1066.011719 782.925781 1065.679688 782.828125 1065.257812 782.828125 L 1064.03125 782.828125 Z M 1066.984375 779.542969 L 1066.984375 780.339844 L 1064.03125 780.339844 L 1064.03125 782.039062 L 1065.277344 782.039062 C 1066.007812 782.039062 1066.570312 782.210938 1066.96875 782.554688 C 1067.363281 782.894531 1067.5625 783.367188 1067.5625 783.96875 C 1067.5625 784.21875 1067.519531 784.460938 1067.4375 784.703125 C 1067.351562 784.941406 1067.21875 785.152344 1067.039062 785.335938 C 1066.855469 785.515625 1066.617188 785.664062 1066.316406 785.777344 C 1066.019531 785.886719 1065.660156 785.945312 1065.230469 785.945312 L 1063.109375 785.945312 L 1063.109375 779.542969 Z M 1066.984375 779.542969 "/>
<path fill-rule="nonzero" fill="rgb(100%, 100%, 100%)" fill-opacity="1" d="M 1070.152344 782.632812 L 1068.042969 779.542969 L 1069.15625 779.542969 L 1070.710938 781.875 L 1072.246094 779.542969 L 1073.25 779.542969 L 1071.199219 782.605469 L 1073.472656 785.945312 L 1072.367188 785.945312 L 1070.652344 783.363281 L 1068.933594 785.945312 L 1067.917969 785.945312 Z M 1070.152344 782.632812 "/>
<path fill-rule="nonzero" fill="rgb(100%, 100%, 100%)" fill-opacity="1" d="M 1077.839844 783.382812 L 1076.800781 780.570312 L 1075.757812 783.382812 Z M 1076.359375 779.542969 L 1077.300781 779.542969 L 1079.804688 785.945312 L 1078.777344 785.945312 L 1078.117188 784.160156 L 1075.488281 784.160156 L 1074.824219 785.945312 L 1073.855469 785.945312 Z M 1076.359375 779.542969 "/>
<path fill-rule="nonzero" fill="rgb(100%, 100%, 100%)" fill-opacity="1" d="M 1081.617188 782.230469 L 1082.539062 782.230469 C 1082.699219 782.230469 1082.847656 782.210938 1082.988281 782.171875 C 1083.132812 782.132812 1083.257812 782.074219 1083.363281 781.992188 C 1083.472656 781.910156 1083.558594 781.800781 1083.625 781.675781 C 1083.6875 781.546875 1083.71875 781.390625 1083.71875 781.214844 C 1083.71875 781.027344 1083.683594 780.871094 1083.621094 780.746094 C 1083.550781 780.617188 1083.460938 780.511719 1083.347656 780.429688 C 1083.238281 780.351562 1083.109375 780.292969 1082.972656 780.257812 C 1082.832031 780.222656 1082.6875 780.207031 1082.539062 780.207031 C 1082.335938 780.207031 1082.152344 780.234375 1081.992188 780.292969 C 1081.832031 780.351562 1081.691406 780.421875 1081.574219 780.511719 C 1081.457031 780.601562 1081.351562 780.699219 1081.261719 780.800781 C 1081.175781 780.902344 1081.097656 780.996094 1081.03125 781.078125 L 1080.390625 780.597656 C 1080.472656 780.472656 1080.578125 780.335938 1080.703125 780.195312 C 1080.828125 780.054688 1080.980469 779.925781 1081.164062 779.804688 C 1081.34375 779.679688 1081.554688 779.582031 1081.796875 779.503906 C 1082.035156 779.429688 1082.308594 779.390625 1082.617188 779.390625 C 1082.941406 779.390625 1083.230469 779.4375 1083.484375 779.53125 C 1083.738281 779.625 1083.949219 779.746094 1084.117188 779.898438 C 1084.289062 780.050781 1084.414062 780.234375 1084.503906 780.441406 C 1084.589844 780.648438 1084.632812 780.867188 1084.632812 781.097656 C 1084.632812 781.457031 1084.53125 781.777344 1084.339844 782.054688 C 1084.144531 782.332031 1083.875 782.511719 1083.527344 782.59375 C 1083.699219 782.632812 1083.863281 782.695312 1084.019531 782.78125 C 1084.179688 782.871094 1084.316406 782.980469 1084.433594 783.113281 C 1084.554688 783.25 1084.644531 783.410156 1084.71875 783.59375 C 1084.789062 783.78125 1084.824219 783.992188 1084.824219 784.238281 C 1084.824219 784.554688 1084.765625 784.832031 1084.644531 785.066406 C 1084.527344 785.300781 1084.363281 785.492188 1084.160156 785.644531 C 1083.957031 785.800781 1083.71875 785.914062 1083.453125 785.988281 C 1083.183594 786.058594 1082.894531 786.097656 1082.585938 786.097656 C 1082.25 786.097656 1081.945312 786.054688 1081.683594 785.972656 C 1081.421875 785.890625 1081.195312 785.789062 1081 785.667969 C 1080.804688 785.542969 1080.640625 785.414062 1080.511719 785.273438 C 1080.378906 785.132812 1080.273438 785.003906 1080.199219 784.886719 L 1080.859375 784.398438 C 1080.917969 784.476562 1080.992188 784.566406 1081.082031 784.667969 C 1081.171875 784.769531 1081.28125 784.867188 1081.417969 784.957031 C 1081.550781 785.046875 1081.710938 785.121094 1081.894531 785.1875 C 1082.082031 785.25 1082.296875 785.28125 1082.539062 785.28125 C 1082.71875 785.28125 1082.890625 785.261719 1083.054688 785.21875 C 1083.214844 785.179688 1083.359375 785.113281 1083.484375 785.023438 C 1083.609375 784.933594 1083.707031 784.8125 1083.78125 784.664062 C 1083.855469 784.511719 1083.890625 784.332031 1083.890625 784.121094 C 1083.890625 783.910156 1083.855469 783.734375 1083.78125 783.59375 C 1083.707031 783.453125 1083.613281 783.339844 1083.496094 783.257812 C 1083.375 783.175781 1083.238281 783.117188 1083.085938 783.082031 C 1082.933594 783.042969 1082.773438 783.027344 1082.617188 783.027344 L 1081.617188 783.027344 Z M 1081.617188 782.230469 "/>
<path fill-rule="nonzero" fill="rgb(100%, 100%, 100%)" fill-opacity="1" d="M 1090.40625 785.945312 L 1090.40625 780.839844 L 1086.914062 785.945312 L 1085.984375 785.945312 L 1085.984375 779.542969 L 1086.886719 779.542969 L 1086.886719 784.628906 L 1090.371094 779.542969 L 1091.308594 779.542969 L 1091.308594 785.945312 Z M 1090.40625 785.945312 "/>
<path fill-rule="nonzero" fill="rgb(100%, 100%, 100%)" fill-opacity="1" d="M 1095.980469 780.339844 L 1094.761719 780.339844 C 1094.378906 780.339844 1094.082031 780.4375 1093.867188 780.632812 C 1093.652344 780.828125 1093.546875 781.097656 1093.546875 781.445312 C 1093.546875 781.78125 1093.644531 782.050781 1093.847656 782.25 C 1094.046875 782.449219 1094.347656 782.546875 1094.746094 782.546875 L 1095.980469 782.546875 Z M 1092.28125 785.945312 L 1093.390625 783.910156 C 1093.511719 783.6875 1093.621094 783.519531 1093.71875 783.410156 C 1093.8125 783.304688 1093.941406 783.214844 1094.101562 783.152344 C 1093.871094 783.113281 1093.664062 783.042969 1093.476562 782.941406 C 1093.292969 782.839844 1093.132812 782.710938 1093.003906 782.558594 C 1092.871094 782.402344 1092.773438 782.226562 1092.707031 782.027344 C 1092.636719 781.832031 1092.605469 781.621094 1092.605469 781.398438 C 1092.605469 781.148438 1092.648438 780.910156 1092.734375 780.6875 C 1092.820312 780.460938 1092.957031 780.265625 1093.136719 780.097656 C 1093.320312 779.925781 1093.550781 779.792969 1093.828125 779.695312 C 1094.105469 779.59375 1094.4375 779.542969 1094.820312 779.542969 L 1096.875 779.542969 L 1096.875 785.945312 L 1095.980469 785.945312 L 1095.980469 783.324219 L 1095.246094 783.324219 C 1095.117188 783.324219 1095.007812 783.339844 1094.917969 783.367188 C 1094.828125 783.398438 1094.746094 783.445312 1094.667969 783.511719 C 1094.589844 783.578125 1094.515625 783.664062 1094.449219 783.765625 C 1094.378906 783.867188 1094.304688 783.996094 1094.226562 784.152344 L 1093.285156 785.945312 Z M 1092.28125 785.945312 "/>
</g>
</svg>